<?xml version="1.0" encoding="UTF-8" standalone="no"?>
<!DOCTYPE svg PUBLIC "-//W3C//DTD SVG 1.1//EN"
 "http://www.w3.org/Graphics/SVG/1.1/DTD/svg11.dtd">
<!-- Generated by graphviz version 2.40.1 (20161225.0304)
 -->
<!-- Title: G Pages: 1 -->
<svg width="655pt" height="688pt"
 viewBox="0.00 0.00 654.77 688.00" xmlns="http://www.w3.org/2000/svg" xmlns:xlink="http://www.w3.org/1999/xlink">
<g id="graph0" class="graph" transform="scale(1 1) rotate(0) translate(4 684)">
<title>G</title>
<polygon fill="#ffffff" stroke="transparent" points="-4,4 -4,-684 650.7728,-684 650.7728,4 -4,4"/>
<g id="clust1" class="cluster">
<title>cluster_Global</title>
<path fill="none" stroke="#c0c0c0" d="M20,-8C20,-8 626.7728,-8 626.7728,-8 632.7728,-8 638.7728,-14 638.7728,-20 638.7728,-20 638.7728,-660 638.7728,-660 638.7728,-666 632.7728,-672 626.7728,-672 626.7728,-672 20,-672 20,-672 14,-672 8,-666 8,-660 8,-660 8,-20 8,-20 8,-14 14,-8 20,-8"/>
<text text-anchor="middle" x="323.3864" y="-659.2" font-family="Times,serif" font-size="11.00" fill="#c0c0c0">Global</text>
</g>
<g id="clust2" class="cluster">
<title>cluster_\Priorist</title>
<path fill="none" stroke="#c0c0c0" d="M406.7728,-16C406.7728,-16 618.7728,-16 618.7728,-16 624.7728,-16 630.7728,-22 630.7728,-28 630.7728,-28 630.7728,-632 630.7728,-632 630.7728,-638 624.7728,-644 618.7728,-644 618.7728,-644 406.7728,-644 406.7728,-644 400.7728,-644 394.7728,-638 394.7728,-632 394.7728,-632 394.7728,-28 394.7728,-28 394.7728,-22 400.7728,-16 406.7728,-16"/>
<text text-anchor="middle" x="512.7728" y="-631.2" font-family="Times,serif" font-size="11.00" fill="#c0c0c0">Priorist</text>
</g>
<g id="clust3" class="cluster">
<title>cluster_\Priorist\AIS</title>
<path fill="none" stroke="#c0c0c0" d="M414.7728,-24C414.7728,-24 610.7728,-24 610.7728,-24 616.7728,-24 622.7728,-30 622.7728,-36 622.7728,-36 622.7728,-604 622.7728,-604 622.7728,-610 616.7728,-616 610.7728,-616 610.7728,-616 414.7728,-616 414.7728,-616 408.7728,-616 402.7728,-610 402.7728,-604 402.7728,-604 402.7728,-36 402.7728,-36 402.7728,-30 408.7728,-24 414.7728,-24"/>
<text text-anchor="middle" x="512.7728" y="-603.2" font-family="Times,serif" font-size="11.00" fill="#c0c0c0">AIS</text>
</g>
<g id="clust4" class="cluster">
<title>cluster_\Priorist\AIS\Client</title>
<path fill="none" stroke="#c0c0c0" d="M422.7728,-32C422.7728,-32 602.7728,-32 602.7728,-32 608.7728,-32 614.7728,-38 614.7728,-44 614.7728,-44 614.7728,-576 614.7728,-576 614.7728,-582 608.7728,-588 602.7728,-588 602.7728,-588 422.7728,-588 422.7728,-588 416.7728,-588 410.7728,-582 410.7728,-576 410.7728,-576 410.7728,-44 410.7728,-44 410.7728,-38 416.7728,-32 422.7728,-32"/>
<text text-anchor="middle" x="512.7728" y="-575.2" font-family="Times,serif" font-size="11.00" fill="#c0c0c0">Client</text>
</g>
<g id="clust5" class="cluster">
<title>cluster_\Priorist\AIS\Client\Repository</title>
<path fill="none" stroke="#c0c0c0" d="M430.7728,-40C430.7728,-40 594.7728,-40 594.7728,-40 600.7728,-40 606.7728,-46 606.7728,-52 606.7728,-52 606.7728,-424 606.7728,-424 606.7728,-430 600.7728,-436 594.7728,-436 594.7728,-436 430.7728,-436 430.7728,-436 424.7728,-436 418.7728,-430 418.7728,-424 418.7728,-424 418.7728,-52 418.7728,-52 418.7728,-46 424.7728,-40 430.7728,-40"/>
<text text-anchor="middle" x="512.7728" y="-423.2" font-family="Times,serif" font-size="11.00" fill="#c0c0c0">Repository</text>
</g>
<g id="clust6" class="cluster">
<title>cluster_\Priorist\AIS\Client\Rest</title>
<path fill="none" stroke="#c0c0c0" d="M457.7728,-444C457.7728,-444 567.7728,-444 567.7728,-444 573.7728,-444 579.7728,-450 579.7728,-456 579.7728,-456 579.7728,-504 579.7728,-504 579.7728,-510 573.7728,-516 567.7728,-516 567.7728,-516 457.7728,-516 457.7728,-516 451.7728,-516 445.7728,-510 445.7728,-504 445.7728,-504 445.7728,-456 445.7728,-456 445.7728,-450 451.7728,-444 457.7728,-444"/>
<text text-anchor="middle" x="512.7728" y="-503.2" font-family="Times,serif" font-size="11.00" fill="#c0c0c0">Rest</text>
</g>
<g id="clust7" class="cluster">
<title>cluster_Global\Priorist</title>
<path fill="none" stroke="#c0c0c0" d="M28,-178C28,-178 374.7728,-178 374.7728,-178 380.7728,-178 386.7728,-184 386.7728,-190 386.7728,-190 386.7728,-346 386.7728,-346 386.7728,-352 380.7728,-358 374.7728,-358 374.7728,-358 28,-358 28,-358 22,-358 16,-352 16,-346 16,-346 16,-190 16,-190 16,-184 22,-178 28,-178"/>
<text text-anchor="middle" x="201.3864" y="-345.2" font-family="Times,serif" font-size="11.00" fill="#c0c0c0">Priorist</text>
</g>
<g id="clust8" class="cluster">
<title>cluster_Global\Priorist\AIS</title>
<path fill="none" stroke="#c0c0c0" d="M36,-186C36,-186 366.7728,-186 366.7728,-186 372.7728,-186 378.7728,-192 378.7728,-198 378.7728,-198 378.7728,-318 378.7728,-318 378.7728,-324 372.7728,-330 366.7728,-330 366.7728,-330 36,-330 36,-330 30,-330 24,-324 24,-318 24,-318 24,-198 24,-198 24,-192 30,-186 36,-186"/>
<text text-anchor="middle" x="201.3864" y="-317.2" font-family="Times,serif" font-size="11.00" fill="#c0c0c0">AIS</text>
</g>
<g id="clust9" class="cluster">
<title>cluster_Global\Priorist\AIS\Client</title>
<path fill="none" stroke="#c0c0c0" d="M44,-194C44,-194 358.7728,-194 358.7728,-194 364.7728,-194 370.7728,-200 370.7728,-206 370.7728,-206 370.7728,-290 370.7728,-290 370.7728,-296 364.7728,-302 358.7728,-302 358.7728,-302 44,-302 44,-302 38,-302 32,-296 32,-290 32,-290 32,-206 32,-206 32,-200 38,-194 44,-194"/>
<text text-anchor="middle" x="201.3864" y="-289.2" font-family="Times,serif" font-size="11.00" fill="#c0c0c0">Client</text>
</g>
<g id="clust10" class="cluster">
<title>cluster_Global\Priorist\AIS\Client\Repository</title>
<path fill="none" stroke="#c0c0c0" d="M52,-202C52,-202 350.7728,-202 350.7728,-202 356.7728,-202 362.7728,-208 362.7728,-214 362.7728,-214 362.7728,-262 362.7728,-262 362.7728,-268 356.7728,-274 350.7728,-274 350.7728,-274 52,-274 52,-274 46,-274 40,-268 40,-262 40,-262 40,-214 40,-214 40,-208 46,-202 52,-202"/>
<text text-anchor="middle" x="201.3864" y="-261.2" font-family="Times,serif" font-size="11.00" fill="#c0c0c0">Repository</text>
</g>
<g id="clust11" class="cluster">
<title>cluster_Global\League</title>
<path fill="none" stroke="#c0c0c0" d="M53.3478,-464C53.3478,-464 349.425,-464 349.425,-464 355.425,-464 361.425,-470 361.425,-476 361.425,-476 361.425,-632 361.425,-632 361.425,-638 355.425,-644 349.425,-644 349.425,-644 53.3478,-644 53.3478,-644 47.3478,-644 41.3478,-638 41.3478,-632 41.3478,-632 41.3478,-476 41.3478,-476 41.3478,-470 47.3478,-464 53.3478,-464"/>
<text text-anchor="middle" x="201.3864" y="-631.2" font-family="Times,serif" font-size="11.00" fill="#c0c0c0">League</text>
</g>
<g id="clust12" class="cluster">
<title>cluster_Global\League\OAuth2</title>
<path fill="none" stroke="#c0c0c0" d="M61.3478,-472C61.3478,-472 341.425,-472 341.425,-472 347.425,-472 353.425,-478 353.425,-484 353.425,-484 353.425,-604 353.425,-604 353.425,-610 347.425,-616 341.425,-616 341.425,-616 61.3478,-616 61.3478,-616 55.3478,-616 49.3478,-610 49.3478,-604 49.3478,-604 49.3478,-484 49.3478,-484 49.3478,-478 55.3478,-472 61.3478,-472"/>
<text text-anchor="middle" x="201.3864" y="-603.2" font-family="Times,serif" font-size="11.00" fill="#c0c0c0">OAuth2</text>
</g>
<g id="clust13" class="cluster">
<title>cluster_Global\League\OAuth2\Client</title>
<path fill="none" stroke="#c0c0c0" d="M69.3478,-480C69.3478,-480 333.425,-480 333.425,-480 339.425,-480 345.425,-486 345.425,-492 345.425,-492 345.425,-576 345.425,-576 345.425,-582 339.425,-588 333.425,-588 333.425,-588 69.3478,-588 69.3478,-588 63.3478,-588 57.3478,-582 57.3478,-576 57.3478,-576 57.3478,-492 57.3478,-492 57.3478,-486 63.3478,-480 69.3478,-480"/>
<text text-anchor="middle" x="201.3864" y="-575.2" font-family="Times,serif" font-size="11.00" fill="#c0c0c0">Client</text>
</g>
<g id="clust14" class="cluster">
<title>cluster_Global\League\OAuth2\Client\Provider</title>
<path fill="none" stroke="#c0c0c0" d="M77.3478,-488C77.3478,-488 325.425,-488 325.425,-488 331.425,-488 337.425,-494 337.425,-500 337.425,-500 337.425,-548 337.425,-548 337.425,-554 331.425,-560 325.425,-560 325.425,-560 77.3478,-560 77.3478,-560 71.3478,-560 65.3478,-554 65.3478,-548 65.3478,-548 65.3478,-500 65.3478,-500 65.3478,-494 71.3478,-488 77.3478,-488"/>
<text text-anchor="middle" x="201.3864" y="-547.2" font-family="Times,serif" font-size="11.00" fill="#c0c0c0">Provider</text>
</g>
<!-- \\Priorist\\AIS\\Client\\Repository\\EventLocationRepository -->
<g id="node1" class="node">
<title>\\Priorist\\AIS\\Client\\Repository\\EventLocationRepository</title>
<polygon fill="none" stroke="#000000" points="598.7728,-408 426.7728,-408 426.7728,-372 598.7728,-372 598.7728,-408"/>
<text text-anchor="middle" x="512.7728" y="-387.2" font-family="Courier,monospace" font-size="11.00" fill="#000000">EventLocationRepository</text>
</g>
<!-- AbstractSearchableRepository -->
<g id="node10" class="node">
<title>AbstractSearchableRepository</title>
<ellipse fill="none" stroke="#000000" cx="201.3864" cy="-228" rx="153.2729" ry="18"/>
<text text-anchor="middle" x="201.3864" y="-224.3" font-family="Times,serif" font-size="14.00" fill="#c0c0c0">AbstractSearchableRepository</text>
</g>
<!-- \\Priorist\\AIS\\Client\\Repository\\EventLocationRepository&#45;&gt;AbstractSearchableRepository -->
<g id="edge1" class="edge">
<title>\\Priorist\\AIS\\Client\\Repository\\EventLocationRepository&#45;&gt;AbstractSearchableRepository</title>
<path fill="none" stroke="#000000" d="M426.4908,-383.9249C414.3586,-379.4741 403.1804,-372.8161 394.7728,-363 378.3967,-343.8806 404.1463,-268.2179 386.7728,-250 380.12,-243.0239 372.5108,-237.3719 364.2572,-232.8303"/>
<polygon fill="none" stroke="#000000" points="365.5832,-229.5826 355.0629,-228.3281 362.5046,-235.8693 365.5832,-229.5826"/>
</g>
<!-- \\Priorist\\AIS\\Client\\Repository\\EventBaseRepository -->
<g id="node2" class="node">
<title>\\Priorist\\AIS\\Client\\Repository\\EventBaseRepository</title>
<polygon fill="none" stroke="#000000" points="585.2728,-354 440.2728,-354 440.2728,-318 585.2728,-318 585.2728,-354"/>
<text text-anchor="middle" x="512.7728" y="-333.2" font-family="Courier,monospace" font-size="11.00" fill="#000000">EventBaseRepository</text>
</g>
<!-- \\Priorist\\AIS\\Client\\Repository\\EventBaseRepository&#45;&gt;AbstractSearchableRepository -->
<g id="edge2" class="edge">
<title>\\Priorist\\AIS\\Client\\Repository\\EventBaseRepository&#45;&gt;AbstractSearchableRepository</title>
<path fill="none" stroke="#000000" d="M440.0606,-333.3167C423.0786,-329.2427 406.5384,-321.8774 394.7728,-309 376.9235,-289.4641 405.6395,-268.5551 386.7728,-250 379.9848,-243.3241 372.3137,-237.8906 364.0515,-233.5023"/>
<polygon fill="none" stroke="#000000" points="365.4026,-230.2694 354.8679,-229.1414 362.3998,-236.5927 365.4026,-230.2694"/>
</g>
<!-- \\Priorist\\AIS\\Client\\Repository\\EventRepository -->
<g id="node3" class="node">
<title>\\Priorist\\AIS\\Client\\Repository\\EventRepository</title>
<polygon fill="none" stroke="#000000" points="571.7728,-300 453.7728,-300 453.7728,-264 571.7728,-264 571.7728,-300"/>
<text text-anchor="middle" x="512.7728" y="-279.2" font-family="Courier,monospace" font-size="11.00" fill="#000000">EventRepository</text>
</g>
<!-- \\Priorist\\AIS\\Client\\Repository\\EventRepository&#45;&gt;AbstractSearchableRepository -->
<g id="edge3" class="edge">
<title>\\Priorist\\AIS\\Client\\Repository\\EventRepository&#45;&gt;AbstractSearchableRepository</title>
<path fill="none" stroke="#000000" d="M453.6584,-272.5054C434.4531,-268.3663 413.322,-262.6632 394.7728,-255 390.8976,-253.3991 390.7279,-251.3918 386.7728,-250 373.6072,-245.3671 359.6252,-241.6704 345.474,-238.7259"/>
<polygon fill="none" stroke="#000000" points="346.144,-235.2907 335.658,-236.8053 344.7998,-242.1604 346.144,-235.2907"/>
</g>
<!-- \\Priorist\\AIS\\Client\\Repository\\LecturerRepository -->
<g id="node4" class="node">
<title>\\Priorist\\AIS\\Client\\Repository\\LecturerRepository</title>
<polygon fill="none" stroke="#000000" points="581.7728,-246 443.7728,-246 443.7728,-210 581.7728,-210 581.7728,-246"/>
<text text-anchor="middle" x="512.7728" y="-225.2" font-family="Courier,monospace" font-size="11.00" fill="#000000">LecturerRepository</text>
</g>
<!-- \\Priorist\\AIS\\Client\\Repository\\LecturerRepository&#45;&gt;AbstractSearchableRepository -->
<g id="edge4" class="edge">
<title>\\Priorist\\AIS\\Client\\Repository\\LecturerRepository&#45;&gt;AbstractSearchableRepository</title>
<path fill="none" stroke="#000000" d="M443.666,-228C420.2083,-228 392.9055,-228 365.2578,-228"/>
<polygon fill="none" stroke="#000000" points="365.0627,-224.5001 355.0627,-228 365.0626,-231.5001 365.0627,-224.5001"/>
</g>
<!-- \\Priorist\\AIS\\Client\\Repository\\TagRepository -->
<g id="node5" class="node">
<title>\\Priorist\\AIS\\Client\\Repository\\TagRepository</title>
<polygon fill="none" stroke="#000000" points="564.7728,-192 460.7728,-192 460.7728,-156 564.7728,-156 564.7728,-192"/>
<text text-anchor="middle" x="512.7728" y="-171.2" font-family="Courier,monospace" font-size="11.00" fill="#000000">TagRepository</text>
</g>
<!-- \\Priorist\\AIS\\Client\\Repository\\TagRepository&#45;&gt;AbstractSearchableRepository -->
<g id="edge5" class="edge">
<title>\\Priorist\\AIS\\Client\\Repository\\TagRepository&#45;&gt;AbstractSearchableRepository</title>
<path fill="none" stroke="#000000" d="M460.6537,-183.0384C416.2393,-190.7406 351.2447,-202.0119 297.4429,-211.3421"/>
<polygon fill="none" stroke="#000000" points="296.7895,-207.9031 287.5346,-213.0603 297.9856,-214.8001 296.7895,-207.9031"/>
</g>
<!-- \\Priorist\\AIS\\Client\\Repository\\CategoryRepository -->
<g id="node6" class="node">
<title>\\Priorist\\AIS\\Client\\Repository\\CategoryRepository</title>
<polygon fill="none" stroke="#000000" points="581.7728,-138 443.7728,-138 443.7728,-102 581.7728,-102 581.7728,-138"/>
<text text-anchor="middle" x="512.7728" y="-117.2" font-family="Courier,monospace" font-size="11.00" fill="#000000">CategoryRepository</text>
</g>
<!-- \\Priorist\\AIS\\Client\\Repository\\CategoryRepository&#45;&gt;AbstractSearchableRepository -->
<g id="edge7" class="edge">
<title>\\Priorist\\AIS\\Client\\Repository\\CategoryRepository&#45;&gt;AbstractSearchableRepository</title>
<path fill="none" stroke="#000000" d="M443.5966,-133.7371C427.4304,-137.5223 410.3796,-141.987 394.7728,-147 343.1756,-163.5733 286.1849,-188.2658 247.5257,-206.0282"/>
<polygon fill="none" stroke="#000000" points="245.7129,-203.0104 238.1065,-210.3856 248.652,-209.3636 245.7129,-203.0104"/>
</g>
<!-- \\Priorist\\AIS\\Client\\Repository\\EnrollmentRepository -->
<g id="node7" class="node">
<title>\\Priorist\\AIS\\Client\\Repository\\EnrollmentRepository</title>
<polygon fill="none" stroke="#000000" points="588.7728,-84 436.7728,-84 436.7728,-48 588.7728,-48 588.7728,-84"/>
<text text-anchor="middle" x="512.7728" y="-63.2" font-family="Courier,monospace" font-size="11.00" fill="#000000">EnrollmentRepository</text>
</g>
<!-- \\Priorist\\AIS\\Client\\Repository\\EnrollmentRepository&#45;&gt;AbstractSearchableRepository -->
<g id="edge8" class="edge">
<title>\\Priorist\\AIS\\Client\\Repository\\EnrollmentRepository&#45;&gt;AbstractSearchableRepository</title>
<path fill="none" stroke="#000000" d="M436.4648,-78.9285C422.2875,-82.5903 407.8377,-87.2096 394.7728,-93 330.2159,-121.612 264.8756,-172.9399 229.1044,-203.3935"/>
<polygon fill="none" stroke="#000000" points="226.8083,-200.7518 221.5088,-209.9261 231.3727,-206.059 226.8083,-200.7518"/>
</g>
<!-- \\Priorist\\AIS\\Client\\Rest\\ClientException -->
<g id="node8" class="node">
<title>\\Priorist\\AIS\\Client\\Rest\\ClientException</title>
<polygon fill="none" stroke="#000000" points="571.7728,-488 453.7728,-488 453.7728,-452 571.7728,-452 571.7728,-488"/>
<text text-anchor="middle" x="512.7728" y="-467.2" font-family="Courier,monospace" font-size="11.00" fill="#000000">ClientException</text>
</g>
<!-- InvalidArgumentException -->
<g id="node12" class="node">
<title>InvalidArgumentException</title>
<ellipse fill="none" stroke="#000000" cx="201.3864" cy="-438" rx="136.4758" ry="18"/>
<text text-anchor="middle" x="201.3864" y="-434.3" font-family="Times,serif" font-size="14.00" fill="#c0c0c0">InvalidArgumentException</text>
</g>
<!-- \\Priorist\\AIS\\Client\\Rest\\ClientException&#45;&gt;InvalidArgumentException -->
<g id="edge6" class="edge">
<title>\\Priorist\\AIS\\Client\\Rest\\ClientException&#45;&gt;InvalidArgumentException</title>
<path fill="none" stroke="#000000" d="M453.4704,-463.9057C415.5775,-460.0116 365.1258,-454.8269 319.3159,-450.1192"/>
<polygon fill="none" stroke="#000000" points="319.6192,-446.632 309.3138,-449.0913 318.9035,-453.5953 319.6192,-446.632"/>
</g>
<!-- \\Priorist\\AIS\\Client\\User -->
<g id="node9" class="node">
<title>\\Priorist\\AIS\\Client\\User</title>
<polygon fill="none" stroke="#000000" points="539.7728,-560 485.7728,-560 485.7728,-524 539.7728,-524 539.7728,-560"/>
<text text-anchor="middle" x="512.7728" y="-539.2" font-family="Courier,monospace" font-size="11.00" fill="#000000">User</text>
</g>
<!-- ResourceOwnerInterface -->
<g id="node11" class="node">
<title>ResourceOwnerInterface</title>
<ellipse fill="none" stroke="#000000" cx="201.3864" cy="-514" rx="128.0773" ry="18"/>
<text text-anchor="middle" x="201.3864" y="-510.3" font-family="Times,serif" font-size="14.00" fill="#c0c0c0">ResourceOwnerInterface</text>
</g>
<!-- \\Priorist\\AIS\\Client\\User&#45;&gt;ResourceOwnerInterface -->
<g id="edge9" class="edge">
<title>\\Priorist\\AIS\\Client\\User&#45;&gt;ResourceOwnerInterface</title>
<path fill="none" stroke="#000000" d="M485.684,-539.5642C448.681,-536.2368 380.0009,-530.0611 319.4156,-524.6132"/>
<polygon fill="none" stroke="#000000" points="319.6527,-521.1205 309.3794,-523.7108 319.0257,-528.0924 319.6527,-521.1205"/>
</g>
</g>
</svg>
