<?xml version="1.0" encoding="UTF-8" standalone="no"?>
<!DOCTYPE svg PUBLIC "-//W3C//DTD SVG 1.1//EN"
 "http://www.w3.org/Graphics/SVG/1.1/DTD/svg11.dtd">
<!-- Generated by graphviz version 2.40.1 (20161225.0304)
 -->
<!-- Title: G Pages: 1 -->
<svg width="655pt" height="580pt"
 viewBox="0.00 0.00 654.77 580.00" xmlns="http://www.w3.org/2000/svg" xmlns:xlink="http://www.w3.org/1999/xlink">
<g id="graph0" class="graph" transform="scale(1 1) rotate(0) translate(4 576)">
<title>G</title>
<polygon fill="#ffffff" stroke="transparent" points="-4,4 -4,-576 650.7728,-576 650.7728,4 -4,4"/>
<g id="clust1" class="cluster">
<title>cluster_Global</title>
<path fill="none" stroke="#c0c0c0" d="M20,-8C20,-8 626.7728,-8 626.7728,-8 632.7728,-8 638.7728,-14 638.7728,-20 638.7728,-20 638.7728,-552 638.7728,-552 638.7728,-558 632.7728,-564 626.7728,-564 626.7728,-564 20,-564 20,-564 14,-564 8,-558 8,-552 8,-552 8,-20 8,-20 8,-14 14,-8 20,-8"/>
<text text-anchor="middle" x="323.3864" y="-551.2" font-family="Times,serif" font-size="11.00" fill="#c0c0c0">Global</text>
</g>
<g id="clust2" class="cluster">
<title>cluster_\Priorist</title>
<path fill="none" stroke="#c0c0c0" d="M406.7728,-16C406.7728,-16 618.7728,-16 618.7728,-16 624.7728,-16 630.7728,-22 630.7728,-28 630.7728,-28 630.7728,-524 630.7728,-524 630.7728,-530 624.7728,-536 618.7728,-536 618.7728,-536 406.7728,-536 406.7728,-536 400.7728,-536 394.7728,-530 394.7728,-524 394.7728,-524 394.7728,-28 394.7728,-28 394.7728,-22 400.7728,-16 406.7728,-16"/>
<text text-anchor="middle" x="512.7728" y="-523.2" font-family="Times,serif" font-size="11.00" fill="#c0c0c0">Priorist</text>
</g>
<g id="clust3" class="cluster">
<title>cluster_\Priorist\AIS</title>
<path fill="none" stroke="#c0c0c0" d="M414.7728,-24C414.7728,-24 610.7728,-24 610.7728,-24 616.7728,-24 622.7728,-30 622.7728,-36 622.7728,-36 622.7728,-496 622.7728,-496 622.7728,-502 616.7728,-508 610.7728,-508 610.7728,-508 414.7728,-508 414.7728,-508 408.7728,-508 402.7728,-502 402.7728,-496 402.7728,-496 402.7728,-36 402.7728,-36 402.7728,-30 408.7728,-24 414.7728,-24"/>
<text text-anchor="middle" x="512.7728" y="-495.2" font-family="Times,serif" font-size="11.00" fill="#c0c0c0">AIS</text>
</g>
<g id="clust4" class="cluster">
<title>cluster_\Priorist\AIS\Client</title>
<path fill="none" stroke="#c0c0c0" d="M422.7728,-32C422.7728,-32 602.7728,-32 602.7728,-32 608.7728,-32 614.7728,-38 614.7728,-44 614.7728,-44 614.7728,-468 614.7728,-468 614.7728,-474 608.7728,-480 602.7728,-480 602.7728,-480 422.7728,-480 422.7728,-480 416.7728,-480 410.7728,-474 410.7728,-468 410.7728,-468 410.7728,-44 410.7728,-44 410.7728,-38 416.7728,-32 422.7728,-32"/>
<text text-anchor="middle" x="512.7728" y="-467.2" font-family="Times,serif" font-size="11.00" fill="#c0c0c0">Client</text>
</g>
<g id="clust5" class="cluster">
<title>cluster_\Priorist\AIS\Client\Repository</title>
<path fill="none" stroke="#c0c0c0" d="M430.7728,-40C430.7728,-40 594.7728,-40 594.7728,-40 600.7728,-40 606.7728,-46 606.7728,-52 606.7728,-52 606.7728,-316 606.7728,-316 606.7728,-322 600.7728,-328 594.7728,-328 594.7728,-328 430.7728,-328 430.7728,-328 424.7728,-328 418.7728,-322 418.7728,-316 418.7728,-316 418.7728,-52 418.7728,-52 418.7728,-46 424.7728,-40 430.7728,-40"/>
<text text-anchor="middle" x="512.7728" y="-315.2" font-family="Times,serif" font-size="11.00" fill="#c0c0c0">Repository</text>
</g>
<g id="clust6" class="cluster">
<title>cluster_\Priorist\AIS\Client\Rest</title>
<path fill="none" stroke="#c0c0c0" d="M457.7728,-336C457.7728,-336 567.7728,-336 567.7728,-336 573.7728,-336 579.7728,-342 579.7728,-348 579.7728,-348 579.7728,-396 579.7728,-396 579.7728,-402 573.7728,-408 567.7728,-408 567.7728,-408 457.7728,-408 457.7728,-408 451.7728,-408 445.7728,-402 445.7728,-396 445.7728,-396 445.7728,-348 445.7728,-348 445.7728,-342 451.7728,-336 457.7728,-336"/>
<text text-anchor="middle" x="512.7728" y="-395.2" font-family="Times,serif" font-size="11.00" fill="#c0c0c0">Rest</text>
</g>
<g id="clust7" class="cluster">
<title>cluster_Global\Priorist</title>
<path fill="none" stroke="#c0c0c0" d="M28,-124C28,-124 374.7728,-124 374.7728,-124 380.7728,-124 386.7728,-130 386.7728,-136 386.7728,-136 386.7728,-292 386.7728,-292 386.7728,-298 380.7728,-304 374.7728,-304 374.7728,-304 28,-304 28,-304 22,-304 16,-298 16,-292 16,-292 16,-136 16,-136 16,-130 22,-124 28,-124"/>
<text text-anchor="middle" x="201.3864" y="-291.2" font-family="Times,serif" font-size="11.00" fill="#c0c0c0">Priorist</text>
</g>
<g id="clust8" class="cluster">
<title>cluster_Global\Priorist\AIS</title>
<path fill="none" stroke="#c0c0c0" d="M36,-132C36,-132 366.7728,-132 366.7728,-132 372.7728,-132 378.7728,-138 378.7728,-144 378.7728,-144 378.7728,-264 378.7728,-264 378.7728,-270 372.7728,-276 366.7728,-276 366.7728,-276 36,-276 36,-276 30,-276 24,-270 24,-264 24,-264 24,-144 24,-144 24,-138 30,-132 36,-132"/>
<text text-anchor="middle" x="201.3864" y="-263.2" font-family="Times,serif" font-size="11.00" fill="#c0c0c0">AIS</text>
</g>
<g id="clust9" class="cluster">
<title>cluster_Global\Priorist\AIS\Client</title>
<path fill="none" stroke="#c0c0c0" d="M44,-140C44,-140 358.7728,-140 358.7728,-140 364.7728,-140 370.7728,-146 370.7728,-152 370.7728,-152 370.7728,-236 370.7728,-236 370.7728,-242 364.7728,-248 358.7728,-248 358.7728,-248 44,-248 44,-248 38,-248 32,-242 32,-236 32,-236 32,-152 32,-152 32,-146 38,-140 44,-140"/>
<text text-anchor="middle" x="201.3864" y="-235.2" font-family="Times,serif" font-size="11.00" fill="#c0c0c0">Client</text>
</g>
<g id="clust10" class="cluster">
<title>cluster_Global\Priorist\AIS\Client\Repository</title>
<path fill="none" stroke="#c0c0c0" d="M52,-148C52,-148 350.7728,-148 350.7728,-148 356.7728,-148 362.7728,-154 362.7728,-160 362.7728,-160 362.7728,-208 362.7728,-208 362.7728,-214 356.7728,-220 350.7728,-220 350.7728,-220 52,-220 52,-220 46,-220 40,-214 40,-208 40,-208 40,-160 40,-160 40,-154 46,-148 52,-148"/>
<text text-anchor="middle" x="201.3864" y="-207.2" font-family="Times,serif" font-size="11.00" fill="#c0c0c0">Repository</text>
</g>
<g id="clust11" class="cluster">
<title>cluster_Global\League</title>
<path fill="none" stroke="#c0c0c0" d="M53.3478,-356C53.3478,-356 349.425,-356 349.425,-356 355.425,-356 361.425,-362 361.425,-368 361.425,-368 361.425,-524 361.425,-524 361.425,-530 355.425,-536 349.425,-536 349.425,-536 53.3478,-536 53.3478,-536 47.3478,-536 41.3478,-530 41.3478,-524 41.3478,-524 41.3478,-368 41.3478,-368 41.3478,-362 47.3478,-356 53.3478,-356"/>
<text text-anchor="middle" x="201.3864" y="-523.2" font-family="Times,serif" font-size="11.00" fill="#c0c0c0">League</text>
</g>
<g id="clust12" class="cluster">
<title>cluster_Global\League\OAuth2</title>
<path fill="none" stroke="#c0c0c0" d="M61.3478,-364C61.3478,-364 341.425,-364 341.425,-364 347.425,-364 353.425,-370 353.425,-376 353.425,-376 353.425,-496 353.425,-496 353.425,-502 347.425,-508 341.425,-508 341.425,-508 61.3478,-508 61.3478,-508 55.3478,-508 49.3478,-502 49.3478,-496 49.3478,-496 49.3478,-376 49.3478,-376 49.3478,-370 55.3478,-364 61.3478,-364"/>
<text text-anchor="middle" x="201.3864" y="-495.2" font-family="Times,serif" font-size="11.00" fill="#c0c0c0">OAuth2</text>
</g>
<g id="clust13" class="cluster">
<title>cluster_Global\League\OAuth2\Client</title>
<path fill="none" stroke="#c0c0c0" d="M69.3478,-372C69.3478,-372 333.425,-372 333.425,-372 339.425,-372 345.425,-378 345.425,-384 345.425,-384 345.425,-468 345.425,-468 345.425,-474 339.425,-480 333.425,-480 333.425,-480 69.3478,-480 69.3478,-480 63.3478,-480 57.3478,-474 57.3478,-468 57.3478,-468 57.3478,-384 57.3478,-384 57.3478,-378 63.3478,-372 69.3478,-372"/>
<text text-anchor="middle" x="201.3864" y="-467.2" font-family="Times,serif" font-size="11.00" fill="#c0c0c0">Client</text>
</g>
<g id="clust14" class="cluster">
<title>cluster_Global\League\OAuth2\Client\Provider</title>
<path fill="none" stroke="#c0c0c0" d="M77.3478,-380C77.3478,-380 325.425,-380 325.425,-380 331.425,-380 337.425,-386 337.425,-392 337.425,-392 337.425,-440 337.425,-440 337.425,-446 331.425,-452 325.425,-452 325.425,-452 77.3478,-452 77.3478,-452 71.3478,-452 65.3478,-446 65.3478,-440 65.3478,-440 65.3478,-392 65.3478,-392 65.3478,-386 71.3478,-380 77.3478,-380"/>
<text text-anchor="middle" x="201.3864" y="-439.2" font-family="Times,serif" font-size="11.00" fill="#c0c0c0">Provider</text>
</g>
<!-- \\Priorist\\AIS\\Client\\Repository\\EventLocationRepository -->
<g id="node1" class="node">
<title>\\Priorist\\AIS\\Client\\Repository\\EventLocationRepository</title>
<polygon fill="none" stroke="#000000" points="598.7728,-300 426.7728,-300 426.7728,-264 598.7728,-264 598.7728,-300"/>
<text text-anchor="middle" x="512.7728" y="-279.2" font-family="Courier,monospace" font-size="11.00" fill="#000000">EventLocationRepository</text>
</g>
<!-- AbstractSearchableRepository -->
<g id="node8" class="node">
<title>AbstractSearchableRepository</title>
<ellipse fill="none" stroke="#000000" cx="201.3864" cy="-174" rx="153.2729" ry="18"/>
<text text-anchor="middle" x="201.3864" y="-170.3" font-family="Times,serif" font-size="14.00" fill="#c0c0c0">AbstractSearchableRepository</text>
</g>
<!-- \\Priorist\\AIS\\Client\\Repository\\EventLocationRepository&#45;&gt;AbstractSearchableRepository -->
<g id="edge1" class="edge">
<title>\\Priorist\\AIS\\Client\\Repository\\EventLocationRepository&#45;&gt;AbstractSearchableRepository</title>
<path fill="none" stroke="#000000" d="M426.7307,-275.3421C414.6457,-270.9509 403.4198,-264.4641 394.7728,-255 376.9235,-235.4641 405.6395,-214.5551 386.7728,-196 379.9848,-189.3241 372.3137,-183.8906 364.0515,-179.5023"/>
<polygon fill="none" stroke="#000000" points="365.4026,-176.2694 354.8679,-175.1414 362.3998,-182.5927 365.4026,-176.2694"/>
</g>
<!-- \\Priorist\\AIS\\Client\\Repository\\TagRepository -->
<g id="node2" class="node">
<title>\\Priorist\\AIS\\Client\\Repository\\TagRepository</title>
<polygon fill="none" stroke="#000000" points="564.7728,-246 460.7728,-246 460.7728,-210 564.7728,-210 564.7728,-246"/>
<text text-anchor="middle" x="512.7728" y="-225.2" font-family="Courier,monospace" font-size="11.00" fill="#000000">TagRepository</text>
</g>
<!-- \\Priorist\\AIS\\Client\\Repository\\TagRepository&#45;&gt;AbstractSearchableRepository -->
<g id="edge2" class="edge">
<title>\\Priorist\\AIS\\Client\\Repository\\TagRepository&#45;&gt;AbstractSearchableRepository</title>
<path fill="none" stroke="#000000" d="M460.5048,-219.9333C439.5798,-215.7114 415.5557,-209.586 394.7728,-201 390.8976,-199.3991 390.7279,-197.3918 386.7728,-196 373.6072,-191.3671 359.6252,-187.6704 345.474,-184.7259"/>
<polygon fill="none" stroke="#000000" points="346.144,-181.2907 335.658,-182.8053 344.7998,-188.1604 346.144,-181.2907"/>
</g>
<!-- \\Priorist\\AIS\\Client\\Repository\\LecturerRepository -->
<g id="node3" class="node">
<title>\\Priorist\\AIS\\Client\\Repository\\LecturerRepository</title>
<polygon fill="none" stroke="#000000" points="581.7728,-192 443.7728,-192 443.7728,-156 581.7728,-156 581.7728,-192"/>
<text text-anchor="middle" x="512.7728" y="-171.2" font-family="Courier,monospace" font-size="11.00" fill="#000000">LecturerRepository</text>
</g>
<!-- \\Priorist\\AIS\\Client\\Repository\\LecturerRepository&#45;&gt;AbstractSearchableRepository -->
<g id="edge3" class="edge">
<title>\\Priorist\\AIS\\Client\\Repository\\LecturerRepository&#45;&gt;AbstractSearchableRepository</title>
<path fill="none" stroke="#000000" d="M443.666,-174C420.2083,-174 392.9055,-174 365.2578,-174"/>
<polygon fill="none" stroke="#000000" points="365.0627,-170.5001 355.0627,-174 365.0626,-177.5001 365.0627,-170.5001"/>
</g>
<!-- \\Priorist\\AIS\\Client\\Repository\\CategoryRepository -->
<g id="node4" class="node">
<title>\\Priorist\\AIS\\Client\\Repository\\CategoryRepository</title>
<polygon fill="none" stroke="#000000" points="581.7728,-138 443.7728,-138 443.7728,-102 581.7728,-102 581.7728,-138"/>
<text text-anchor="middle" x="512.7728" y="-117.2" font-family="Courier,monospace" font-size="11.00" fill="#000000">CategoryRepository</text>
</g>
<!-- \\Priorist\\AIS\\Client\\Repository\\CategoryRepository&#45;&gt;AbstractSearchableRepository -->
<g id="edge4" class="edge">
<title>\\Priorist\\AIS\\Client\\Repository\\CategoryRepository&#45;&gt;AbstractSearchableRepository</title>
<path fill="none" stroke="#000000" d="M443.666,-131.9844C400.6762,-139.4396 344.7724,-149.1343 297.4989,-157.3324"/>
<polygon fill="none" stroke="#000000" points="296.8048,-153.9004 287.55,-159.0577 298.001,-160.7975 296.8048,-153.9004"/>
</g>
<!-- \\Priorist\\AIS\\Client\\Repository\\EnrollmentRepository -->
<g id="node5" class="node">
<title>\\Priorist\\AIS\\Client\\Repository\\EnrollmentRepository</title>
<polygon fill="none" stroke="#000000" points="588.7728,-84 436.7728,-84 436.7728,-48 588.7728,-48 588.7728,-84"/>
<text text-anchor="middle" x="512.7728" y="-63.2" font-family="Courier,monospace" font-size="11.00" fill="#000000">EnrollmentRepository</text>
</g>
<!-- \\Priorist\\AIS\\Client\\Repository\\EnrollmentRepository&#45;&gt;AbstractSearchableRepository -->
<g id="edge5" class="edge">
<title>\\Priorist\\AIS\\Client\\Repository\\EnrollmentRepository&#45;&gt;AbstractSearchableRepository</title>
<path fill="none" stroke="#000000" d="M436.7108,-81.3787C422.6499,-84.7925 408.1786,-88.694 394.7728,-93 343.1756,-109.5733 286.1849,-134.2658 247.5257,-152.0282"/>
<polygon fill="none" stroke="#000000" points="245.7129,-149.0104 238.1065,-156.3856 248.652,-155.3636 245.7129,-149.0104"/>
</g>
<!-- \\Priorist\\AIS\\Client\\Rest\\ClientException -->
<g id="node6" class="node">
<title>\\Priorist\\AIS\\Client\\Rest\\ClientException</title>
<polygon fill="none" stroke="#000000" points="571.7728,-380 453.7728,-380 453.7728,-344 571.7728,-344 571.7728,-380"/>
<text text-anchor="middle" x="512.7728" y="-359.2" font-family="Courier,monospace" font-size="11.00" fill="#000000">ClientException</text>
</g>
<!-- InvalidArgumentException -->
<g id="node10" class="node">
<title>InvalidArgumentException</title>
<ellipse fill="none" stroke="#000000" cx="201.3864" cy="-330" rx="136.4758" ry="18"/>
<text text-anchor="middle" x="201.3864" y="-326.3" font-family="Times,serif" font-size="14.00" fill="#c0c0c0">InvalidArgumentException</text>
</g>
<!-- \\Priorist\\AIS\\Client\\Rest\\ClientException&#45;&gt;InvalidArgumentException -->
<g id="edge6" class="edge">
<title>\\Priorist\\AIS\\Client\\Rest\\ClientException&#45;&gt;InvalidArgumentException</title>
<path fill="none" stroke="#000000" d="M453.4704,-355.9057C415.5775,-352.0116 365.1258,-346.8269 319.3159,-342.1192"/>
<polygon fill="none" stroke="#000000" points="319.6192,-338.632 309.3138,-341.0913 318.9035,-345.5953 319.6192,-338.632"/>
</g>
<!-- \\Priorist\\AIS\\Client\\User -->
<g id="node7" class="node">
<title>\\Priorist\\AIS\\Client\\User</title>
<polygon fill="none" stroke="#000000" points="539.7728,-452 485.7728,-452 485.7728,-416 539.7728,-416 539.7728,-452"/>
<text text-anchor="middle" x="512.7728" y="-431.2" font-family="Courier,monospace" font-size="11.00" fill="#000000">User</text>
</g>
<!-- ResourceOwnerInterface -->
<g id="node9" class="node">
<title>ResourceOwnerInterface</title>
<ellipse fill="none" stroke="#000000" cx="201.3864" cy="-406" rx="128.0773" ry="18"/>
<text text-anchor="middle" x="201.3864" y="-402.3" font-family="Times,serif" font-size="14.00" fill="#c0c0c0">ResourceOwnerInterface</text>
</g>
<!-- \\Priorist\\AIS\\Client\\User&#45;&gt;ResourceOwnerInterface -->
<g id="edge7" class="edge">
<title>\\Priorist\\AIS\\Client\\User&#45;&gt;ResourceOwnerInterface</title>
<path fill="none" stroke="#000000" d="M485.684,-431.5642C448.681,-428.2368 380.0009,-422.0611 319.4156,-416.6132"/>
<polygon fill="none" stroke="#000000" points="319.6527,-413.1205 309.3794,-415.7108 319.0257,-420.0924 319.6527,-413.1205"/>
</g>
</g>
</svg>
