<?xml version="1.0" encoding="UTF-8" standalone="no"?>
<!DOCTYPE svg PUBLIC "-//W3C//DTD SVG 1.1//EN"
 "http://www.w3.org/Graphics/SVG/1.1/DTD/svg11.dtd">
<!-- Generated by graphviz version 2.40.1 (20161225.0304)
 -->
<!-- Title: G Pages: 1 -->
<svg width="655pt" height="456pt"
 viewBox="0.00 0.00 654.77 456.00" xmlns="http://www.w3.org/2000/svg" xmlns:xlink="http://www.w3.org/1999/xlink">
<g id="graph0" class="graph" transform="scale(1 1) rotate(0) translate(4 452)">
<title>G</title>
<polygon fill="#ffffff" stroke="transparent" points="-4,4 -4,-452 650.7728,-452 650.7728,4 -4,4"/>
<g id="clust1" class="cluster">
<title>cluster_Global</title>
<path fill="none" stroke="#c0c0c0" d="M20,-8C20,-8 626.7728,-8 626.7728,-8 632.7728,-8 638.7728,-14 638.7728,-20 638.7728,-20 638.7728,-428 638.7728,-428 638.7728,-434 632.7728,-440 626.7728,-440 626.7728,-440 20,-440 20,-440 14,-440 8,-434 8,-428 8,-428 8,-20 8,-20 8,-14 14,-8 20,-8"/>
<text text-anchor="middle" x="323.3864" y="-427.2" font-family="Times,serif" font-size="11.00" fill="#c0c0c0">Global</text>
</g>
<g id="clust2" class="cluster">
<title>cluster_\Priorist</title>
<path fill="none" stroke="#c0c0c0" d="M406.7728,-16C406.7728,-16 618.7728,-16 618.7728,-16 624.7728,-16 630.7728,-22 630.7728,-28 630.7728,-28 630.7728,-400 630.7728,-400 630.7728,-406 624.7728,-412 618.7728,-412 618.7728,-412 406.7728,-412 406.7728,-412 400.7728,-412 394.7728,-406 394.7728,-400 394.7728,-400 394.7728,-28 394.7728,-28 394.7728,-22 400.7728,-16 406.7728,-16"/>
<text text-anchor="middle" x="512.7728" y="-399.2" font-family="Times,serif" font-size="11.00" fill="#c0c0c0">Priorist</text>
</g>
<g id="clust3" class="cluster">
<title>cluster_\Priorist\AIS</title>
<path fill="none" stroke="#c0c0c0" d="M414.7728,-24C414.7728,-24 610.7728,-24 610.7728,-24 616.7728,-24 622.7728,-30 622.7728,-36 622.7728,-36 622.7728,-372 622.7728,-372 622.7728,-378 616.7728,-384 610.7728,-384 610.7728,-384 414.7728,-384 414.7728,-384 408.7728,-384 402.7728,-378 402.7728,-372 402.7728,-372 402.7728,-36 402.7728,-36 402.7728,-30 408.7728,-24 414.7728,-24"/>
<text text-anchor="middle" x="512.7728" y="-371.2" font-family="Times,serif" font-size="11.00" fill="#c0c0c0">AIS</text>
</g>
<g id="clust4" class="cluster">
<title>cluster_\Priorist\AIS\Client</title>
<path fill="none" stroke="#c0c0c0" d="M422.7728,-32C422.7728,-32 602.7728,-32 602.7728,-32 608.7728,-32 614.7728,-38 614.7728,-44 614.7728,-44 614.7728,-344 614.7728,-344 614.7728,-350 608.7728,-356 602.7728,-356 602.7728,-356 422.7728,-356 422.7728,-356 416.7728,-356 410.7728,-350 410.7728,-344 410.7728,-344 410.7728,-44 410.7728,-44 410.7728,-38 416.7728,-32 422.7728,-32"/>
<text text-anchor="middle" x="512.7728" y="-343.2" font-family="Times,serif" font-size="11.00" fill="#c0c0c0">Client</text>
</g>
<g id="clust5" class="cluster">
<title>cluster_\Priorist\AIS\Client\Repository</title>
<path fill="none" stroke="#c0c0c0" d="M430.7728,-40C430.7728,-40 594.7728,-40 594.7728,-40 600.7728,-40 606.7728,-46 606.7728,-52 606.7728,-52 606.7728,-316 606.7728,-316 606.7728,-322 600.7728,-328 594.7728,-328 594.7728,-328 430.7728,-328 430.7728,-328 424.7728,-328 418.7728,-322 418.7728,-316 418.7728,-316 418.7728,-52 418.7728,-52 418.7728,-46 424.7728,-40 430.7728,-40"/>
<text text-anchor="middle" x="512.7728" y="-315.2" font-family="Times,serif" font-size="11.00" fill="#c0c0c0">Repository</text>
</g>
<g id="clust6" class="cluster">
<title>cluster_Global\Priorist</title>
<path fill="none" stroke="#c0c0c0" d="M28,-124C28,-124 374.7728,-124 374.7728,-124 380.7728,-124 386.7728,-130 386.7728,-136 386.7728,-136 386.7728,-292 386.7728,-292 386.7728,-298 380.7728,-304 374.7728,-304 374.7728,-304 28,-304 28,-304 22,-304 16,-298 16,-292 16,-292 16,-136 16,-136 16,-130 22,-124 28,-124"/>
<text text-anchor="middle" x="201.3864" y="-291.2" font-family="Times,serif" font-size="11.00" fill="#c0c0c0">Priorist</text>
</g>
<g id="clust7" class="cluster">
<title>cluster_Global\Priorist\AIS</title>
<path fill="none" stroke="#c0c0c0" d="M36,-132C36,-132 366.7728,-132 366.7728,-132 372.7728,-132 378.7728,-138 378.7728,-144 378.7728,-144 378.7728,-264 378.7728,-264 378.7728,-270 372.7728,-276 366.7728,-276 366.7728,-276 36,-276 36,-276 30,-276 24,-270 24,-264 24,-264 24,-144 24,-144 24,-138 30,-132 36,-132"/>
<text text-anchor="middle" x="201.3864" y="-263.2" font-family="Times,serif" font-size="11.00" fill="#c0c0c0">AIS</text>
</g>
<g id="clust8" class="cluster">
<title>cluster_Global\Priorist\AIS\Client</title>
<path fill="none" stroke="#c0c0c0" d="M44,-140C44,-140 358.7728,-140 358.7728,-140 364.7728,-140 370.7728,-146 370.7728,-152 370.7728,-152 370.7728,-236 370.7728,-236 370.7728,-242 364.7728,-248 358.7728,-248 358.7728,-248 44,-248 44,-248 38,-248 32,-242 32,-236 32,-236 32,-152 32,-152 32,-146 38,-140 44,-140"/>
<text text-anchor="middle" x="201.3864" y="-235.2" font-family="Times,serif" font-size="11.00" fill="#c0c0c0">Client</text>
</g>
<g id="clust9" class="cluster">
<title>cluster_Global\Priorist\AIS\Client\Repository</title>
<path fill="none" stroke="#c0c0c0" d="M52,-148C52,-148 350.7728,-148 350.7728,-148 356.7728,-148 362.7728,-154 362.7728,-160 362.7728,-160 362.7728,-208 362.7728,-208 362.7728,-214 356.7728,-220 350.7728,-220 350.7728,-220 52,-220 52,-220 46,-220 40,-214 40,-208 40,-208 40,-160 40,-160 40,-154 46,-148 52,-148"/>
<text text-anchor="middle" x="201.3864" y="-207.2" font-family="Times,serif" font-size="11.00" fill="#c0c0c0">Repository</text>
</g>
<!-- \\Priorist\\AIS\\Client\\Repository\\CategoryRepository -->
<g id="node1" class="node">
<title>\\Priorist\\AIS\\Client\\Repository\\CategoryRepository</title>
<polygon fill="none" stroke="#000000" points="581.7728,-300 443.7728,-300 443.7728,-264 581.7728,-264 581.7728,-300"/>
<text text-anchor="middle" x="512.7728" y="-279.2" font-family="Courier,monospace" font-size="11.00" fill="#000000">CategoryRepository</text>
</g>
<!-- AbstractSearchableRepository -->
<g id="node6" class="node">
<title>AbstractSearchableRepository</title>
<ellipse fill="none" stroke="#000000" cx="201.3864" cy="-174" rx="153.2729" ry="18"/>
<text text-anchor="middle" x="201.3864" y="-170.3" font-family="Times,serif" font-size="14.00" fill="#c0c0c0">AbstractSearchableRepository</text>
</g>
<!-- \\Priorist\\AIS\\Client\\Repository\\CategoryRepository&#45;&gt;AbstractSearchableRepository -->
<g id="edge1" class="edge">
<title>\\Priorist\\AIS\\Client\\Repository\\CategoryRepository&#45;&gt;AbstractSearchableRepository</title>
<path fill="none" stroke="#000000" d="M443.5966,-268.2629C427.4304,-264.4777 410.3796,-260.013 394.7728,-255 343.1756,-238.4267 286.1849,-213.7342 247.5257,-195.9718"/>
<polygon fill="none" stroke="#000000" points="248.652,-192.6364 238.1065,-191.6144 245.7129,-198.9896 248.652,-192.6364"/>
</g>
<!-- \\Priorist\\AIS\\Client\\Repository\\EventLocationRepository -->
<g id="node2" class="node">
<title>\\Priorist\\AIS\\Client\\Repository\\EventLocationRepository</title>
<polygon fill="none" stroke="#000000" points="598.7728,-246 426.7728,-246 426.7728,-210 598.7728,-210 598.7728,-246"/>
<text text-anchor="middle" x="512.7728" y="-225.2" font-family="Courier,monospace" font-size="11.00" fill="#000000">EventLocationRepository</text>
</g>
<!-- \\Priorist\\AIS\\Client\\Repository\\EventLocationRepository&#45;&gt;AbstractSearchableRepository -->
<g id="edge2" class="edge">
<title>\\Priorist\\AIS\\Client\\Repository\\EventLocationRepository&#45;&gt;AbstractSearchableRepository</title>
<path fill="none" stroke="#000000" d="M426.4478,-213.0297C386.4583,-206.0948 338.7941,-197.829 297.6466,-190.6932"/>
<polygon fill="none" stroke="#000000" points="298.0603,-187.2128 287.6093,-188.9526 296.8641,-194.1099 298.0603,-187.2128"/>
</g>
<!-- \\Priorist\\AIS\\Client\\Repository\\EventRepository -->
<g id="node3" class="node">
<title>\\Priorist\\AIS\\Client\\Repository\\EventRepository</title>
<polygon fill="none" stroke="#000000" points="571.7728,-192 453.7728,-192 453.7728,-156 571.7728,-156 571.7728,-192"/>
<text text-anchor="middle" x="512.7728" y="-171.2" font-family="Courier,monospace" font-size="11.00" fill="#000000">EventRepository</text>
</g>
<!-- \\Priorist\\AIS\\Client\\Repository\\EventRepository&#45;&gt;AbstractSearchableRepository -->
<g id="edge3" class="edge">
<title>\\Priorist\\AIS\\Client\\Repository\\EventRepository&#45;&gt;AbstractSearchableRepository</title>
<path fill="none" stroke="#000000" d="M453.4704,-174C427.9945,-174 396.8418,-174 365.2396,-174"/>
<polygon fill="none" stroke="#000000" points="364.9701,-170.5001 354.97,-174 364.97,-177.5001 364.9701,-170.5001"/>
</g>
<!-- \\Priorist\\AIS\\Client\\Repository\\LecturerRepository -->
<g id="node4" class="node">
<title>\\Priorist\\AIS\\Client\\Repository\\LecturerRepository</title>
<polygon fill="none" stroke="#000000" points="581.7728,-138 443.7728,-138 443.7728,-102 581.7728,-102 581.7728,-138"/>
<text text-anchor="middle" x="512.7728" y="-117.2" font-family="Courier,monospace" font-size="11.00" fill="#000000">LecturerRepository</text>
</g>
<!-- \\Priorist\\AIS\\Client\\Repository\\LecturerRepository&#45;&gt;AbstractSearchableRepository -->
<g id="edge4" class="edge">
<title>\\Priorist\\AIS\\Client\\Repository\\LecturerRepository&#45;&gt;AbstractSearchableRepository</title>
<path fill="none" stroke="#000000" d="M443.666,-131.9844C400.6762,-139.4396 344.7724,-149.1343 297.4989,-157.3324"/>
<polygon fill="none" stroke="#000000" points="296.8048,-153.9004 287.55,-159.0577 298.001,-160.7975 296.8048,-153.9004"/>
</g>
<!-- \\Priorist\\AIS\\Client\\Repository\\TagRepository -->
<g id="node5" class="node">
<title>\\Priorist\\AIS\\Client\\Repository\\TagRepository</title>
<polygon fill="none" stroke="#000000" points="564.7728,-84 460.7728,-84 460.7728,-48 564.7728,-48 564.7728,-84"/>
<text text-anchor="middle" x="512.7728" y="-63.2" font-family="Courier,monospace" font-size="11.00" fill="#000000">TagRepository</text>
</g>
<!-- \\Priorist\\AIS\\Client\\Repository\\TagRepository&#45;&gt;AbstractSearchableRepository -->
<g id="edge5" class="edge">
<title>\\Priorist\\AIS\\Client\\Repository\\TagRepository&#45;&gt;AbstractSearchableRepository</title>
<path fill="none" stroke="#000000" d="M460.5565,-75.9295C439.8582,-80.3875 415.982,-86.1875 394.7728,-93 343.1756,-109.5733 286.1849,-134.2658 247.5257,-152.0282"/>
<polygon fill="none" stroke="#000000" points="245.7129,-149.0104 238.1065,-156.3856 248.652,-155.3636 245.7129,-149.0104"/>
</g>
</g>
</svg>
