<?xml version="1.0" encoding="UTF-8" standalone="no"?>
<!DOCTYPE svg PUBLIC "-//W3C//DTD SVG 1.1//EN"
 "http://www.w3.org/Graphics/SVG/1.1/DTD/svg11.dtd">
<!-- Generated by graphviz version 2.40.1 (20161225.0304)
 -->
<!-- Title: G Pages: 1 -->
<svg width="655pt" height="634pt"
 viewBox="0.00 0.00 654.77 634.00" xmlns="http://www.w3.org/2000/svg" xmlns:xlink="http://www.w3.org/1999/xlink">
<g id="graph0" class="graph" transform="scale(1 1) rotate(0) translate(4 630)">
<title>G</title>
<polygon fill="#ffffff" stroke="transparent" points="-4,4 -4,-630 650.7728,-630 650.7728,4 -4,4"/>
<g id="clust1" class="cluster">
<title>cluster_Global</title>
<path fill="none" stroke="#c0c0c0" d="M20,-8C20,-8 626.7728,-8 626.7728,-8 632.7728,-8 638.7728,-14 638.7728,-20 638.7728,-20 638.7728,-606 638.7728,-606 638.7728,-612 632.7728,-618 626.7728,-618 626.7728,-618 20,-618 20,-618 14,-618 8,-612 8,-606 8,-606 8,-20 8,-20 8,-14 14,-8 20,-8"/>
<text text-anchor="middle" x="323.3864" y="-605.2" font-family="Times,serif" font-size="11.00" fill="#c0c0c0">Global</text>
</g>
<g id="clust2" class="cluster">
<title>cluster_\Priorist</title>
<path fill="none" stroke="#c0c0c0" d="M406.7728,-16C406.7728,-16 618.7728,-16 618.7728,-16 624.7728,-16 630.7728,-22 630.7728,-28 630.7728,-28 630.7728,-578 630.7728,-578 630.7728,-584 624.7728,-590 618.7728,-590 618.7728,-590 406.7728,-590 406.7728,-590 400.7728,-590 394.7728,-584 394.7728,-578 394.7728,-578 394.7728,-28 394.7728,-28 394.7728,-22 400.7728,-16 406.7728,-16"/>
<text text-anchor="middle" x="512.7728" y="-577.2" font-family="Times,serif" font-size="11.00" fill="#c0c0c0">Priorist</text>
</g>
<g id="clust3" class="cluster">
<title>cluster_\Priorist\AIS</title>
<path fill="none" stroke="#c0c0c0" d="M414.7728,-24C414.7728,-24 610.7728,-24 610.7728,-24 616.7728,-24 622.7728,-30 622.7728,-36 622.7728,-36 622.7728,-550 622.7728,-550 622.7728,-556 616.7728,-562 610.7728,-562 610.7728,-562 414.7728,-562 414.7728,-562 408.7728,-562 402.7728,-556 402.7728,-550 402.7728,-550 402.7728,-36 402.7728,-36 402.7728,-30 408.7728,-24 414.7728,-24"/>
<text text-anchor="middle" x="512.7728" y="-549.2" font-family="Times,serif" font-size="11.00" fill="#c0c0c0">AIS</text>
</g>
<g id="clust4" class="cluster">
<title>cluster_\Priorist\AIS\Client</title>
<path fill="none" stroke="#c0c0c0" d="M422.7728,-32C422.7728,-32 602.7728,-32 602.7728,-32 608.7728,-32 614.7728,-38 614.7728,-44 614.7728,-44 614.7728,-522 614.7728,-522 614.7728,-528 608.7728,-534 602.7728,-534 602.7728,-534 422.7728,-534 422.7728,-534 416.7728,-534 410.7728,-528 410.7728,-522 410.7728,-522 410.7728,-44 410.7728,-44 410.7728,-38 416.7728,-32 422.7728,-32"/>
<text text-anchor="middle" x="512.7728" y="-521.2" font-family="Times,serif" font-size="11.00" fill="#c0c0c0">Client</text>
</g>
<g id="clust5" class="cluster">
<title>cluster_\Priorist\AIS\Client\Repository</title>
<path fill="none" stroke="#c0c0c0" d="M430.7728,-40C430.7728,-40 594.7728,-40 594.7728,-40 600.7728,-40 606.7728,-46 606.7728,-52 606.7728,-52 606.7728,-370 606.7728,-370 606.7728,-376 600.7728,-382 594.7728,-382 594.7728,-382 430.7728,-382 430.7728,-382 424.7728,-382 418.7728,-376 418.7728,-370 418.7728,-370 418.7728,-52 418.7728,-52 418.7728,-46 424.7728,-40 430.7728,-40"/>
<text text-anchor="middle" x="512.7728" y="-369.2" font-family="Times,serif" font-size="11.00" fill="#c0c0c0">Repository</text>
</g>
<g id="clust6" class="cluster">
<title>cluster_\Priorist\AIS\Client\Rest</title>
<path fill="none" stroke="#c0c0c0" d="M457.7728,-390C457.7728,-390 567.7728,-390 567.7728,-390 573.7728,-390 579.7728,-396 579.7728,-402 579.7728,-402 579.7728,-450 579.7728,-450 579.7728,-456 573.7728,-462 567.7728,-462 567.7728,-462 457.7728,-462 457.7728,-462 451.7728,-462 445.7728,-456 445.7728,-450 445.7728,-450 445.7728,-402 445.7728,-402 445.7728,-396 451.7728,-390 457.7728,-390"/>
<text text-anchor="middle" x="512.7728" y="-449.2" font-family="Times,serif" font-size="11.00" fill="#c0c0c0">Rest</text>
</g>
<g id="clust7" class="cluster">
<title>cluster_Global\Priorist</title>
<path fill="none" stroke="#c0c0c0" d="M28,-151C28,-151 374.7728,-151 374.7728,-151 380.7728,-151 386.7728,-157 386.7728,-163 386.7728,-163 386.7728,-319 386.7728,-319 386.7728,-325 380.7728,-331 374.7728,-331 374.7728,-331 28,-331 28,-331 22,-331 16,-325 16,-319 16,-319 16,-163 16,-163 16,-157 22,-151 28,-151"/>
<text text-anchor="middle" x="201.3864" y="-318.2" font-family="Times,serif" font-size="11.00" fill="#c0c0c0">Priorist</text>
</g>
<g id="clust8" class="cluster">
<title>cluster_Global\Priorist\AIS</title>
<path fill="none" stroke="#c0c0c0" d="M36,-159C36,-159 366.7728,-159 366.7728,-159 372.7728,-159 378.7728,-165 378.7728,-171 378.7728,-171 378.7728,-291 378.7728,-291 378.7728,-297 372.7728,-303 366.7728,-303 366.7728,-303 36,-303 36,-303 30,-303 24,-297 24,-291 24,-291 24,-171 24,-171 24,-165 30,-159 36,-159"/>
<text text-anchor="middle" x="201.3864" y="-290.2" font-family="Times,serif" font-size="11.00" fill="#c0c0c0">AIS</text>
</g>
<g id="clust9" class="cluster">
<title>cluster_Global\Priorist\AIS\Client</title>
<path fill="none" stroke="#c0c0c0" d="M44,-167C44,-167 358.7728,-167 358.7728,-167 364.7728,-167 370.7728,-173 370.7728,-179 370.7728,-179 370.7728,-263 370.7728,-263 370.7728,-269 364.7728,-275 358.7728,-275 358.7728,-275 44,-275 44,-275 38,-275 32,-269 32,-263 32,-263 32,-179 32,-179 32,-173 38,-167 44,-167"/>
<text text-anchor="middle" x="201.3864" y="-262.2" font-family="Times,serif" font-size="11.00" fill="#c0c0c0">Client</text>
</g>
<g id="clust10" class="cluster">
<title>cluster_Global\Priorist\AIS\Client\Repository</title>
<path fill="none" stroke="#c0c0c0" d="M52,-175C52,-175 350.7728,-175 350.7728,-175 356.7728,-175 362.7728,-181 362.7728,-187 362.7728,-187 362.7728,-235 362.7728,-235 362.7728,-241 356.7728,-247 350.7728,-247 350.7728,-247 52,-247 52,-247 46,-247 40,-241 40,-235 40,-235 40,-187 40,-187 40,-181 46,-175 52,-175"/>
<text text-anchor="middle" x="201.3864" y="-234.2" font-family="Times,serif" font-size="11.00" fill="#c0c0c0">Repository</text>
</g>
<g id="clust11" class="cluster">
<title>cluster_Global\League</title>
<path fill="none" stroke="#c0c0c0" d="M53.3478,-410C53.3478,-410 349.425,-410 349.425,-410 355.425,-410 361.425,-416 361.425,-422 361.425,-422 361.425,-578 361.425,-578 361.425,-584 355.425,-590 349.425,-590 349.425,-590 53.3478,-590 53.3478,-590 47.3478,-590 41.3478,-584 41.3478,-578 41.3478,-578 41.3478,-422 41.3478,-422 41.3478,-416 47.3478,-410 53.3478,-410"/>
<text text-anchor="middle" x="201.3864" y="-577.2" font-family="Times,serif" font-size="11.00" fill="#c0c0c0">League</text>
</g>
<g id="clust12" class="cluster">
<title>cluster_Global\League\OAuth2</title>
<path fill="none" stroke="#c0c0c0" d="M61.3478,-418C61.3478,-418 341.425,-418 341.425,-418 347.425,-418 353.425,-424 353.425,-430 353.425,-430 353.425,-550 353.425,-550 353.425,-556 347.425,-562 341.425,-562 341.425,-562 61.3478,-562 61.3478,-562 55.3478,-562 49.3478,-556 49.3478,-550 49.3478,-550 49.3478,-430 49.3478,-430 49.3478,-424 55.3478,-418 61.3478,-418"/>
<text text-anchor="middle" x="201.3864" y="-549.2" font-family="Times,serif" font-size="11.00" fill="#c0c0c0">OAuth2</text>
</g>
<g id="clust13" class="cluster">
<title>cluster_Global\League\OAuth2\Client</title>
<path fill="none" stroke="#c0c0c0" d="M69.3478,-426C69.3478,-426 333.425,-426 333.425,-426 339.425,-426 345.425,-432 345.425,-438 345.425,-438 345.425,-522 345.425,-522 345.425,-528 339.425,-534 333.425,-534 333.425,-534 69.3478,-534 69.3478,-534 63.3478,-534 57.3478,-528 57.3478,-522 57.3478,-522 57.3478,-438 57.3478,-438 57.3478,-432 63.3478,-426 69.3478,-426"/>
<text text-anchor="middle" x="201.3864" y="-521.2" font-family="Times,serif" font-size="11.00" fill="#c0c0c0">Client</text>
</g>
<g id="clust14" class="cluster">
<title>cluster_Global\League\OAuth2\Client\Provider</title>
<path fill="none" stroke="#c0c0c0" d="M77.3478,-434C77.3478,-434 325.425,-434 325.425,-434 331.425,-434 337.425,-440 337.425,-446 337.425,-446 337.425,-494 337.425,-494 337.425,-500 331.425,-506 325.425,-506 325.425,-506 77.3478,-506 77.3478,-506 71.3478,-506 65.3478,-500 65.3478,-494 65.3478,-494 65.3478,-446 65.3478,-446 65.3478,-440 71.3478,-434 77.3478,-434"/>
<text text-anchor="middle" x="201.3864" y="-493.2" font-family="Times,serif" font-size="11.00" fill="#c0c0c0">Provider</text>
</g>
<!-- \\Priorist\\AIS\\Client\\Repository\\EventLocationRepository -->
<g id="node1" class="node">
<title>\\Priorist\\AIS\\Client\\Repository\\EventLocationRepository</title>
<polygon fill="none" stroke="#000000" points="598.7728,-354 426.7728,-354 426.7728,-318 598.7728,-318 598.7728,-354"/>
<text text-anchor="middle" x="512.7728" y="-333.2" font-family="Courier,monospace" font-size="11.00" fill="#000000">EventLocationRepository</text>
</g>
<!-- AbstractSearchableRepository -->
<g id="node9" class="node">
<title>AbstractSearchableRepository</title>
<ellipse fill="none" stroke="#000000" cx="201.3864" cy="-201" rx="153.2729" ry="18"/>
<text text-anchor="middle" x="201.3864" y="-197.3" font-family="Times,serif" font-size="14.00" fill="#c0c0c0">AbstractSearchableRepository</text>
</g>
<!-- \\Priorist\\AIS\\Client\\Repository\\EventLocationRepository&#45;&gt;AbstractSearchableRepository -->
<g id="edge1" class="edge">
<title>\\Priorist\\AIS\\Client\\Repository\\EventLocationRepository&#45;&gt;AbstractSearchableRepository</title>
<path fill="none" stroke="#000000" d="M426.6776,-329.7631C414.5224,-325.3321 403.2883,-318.7227 394.7728,-309 382.1268,-294.5613 400.1715,-236.743 386.7728,-223 380.0434,-216.0978 372.3754,-210.5024 364.0776,-206.0034"/>
<polygon fill="none" stroke="#000000" points="365.368,-202.7398 354.8411,-201.5419 362.3233,-209.043 365.368,-202.7398"/>
</g>
<!-- \\Priorist\\AIS\\Client\\Repository\\EventRepository -->
<g id="node2" class="node">
<title>\\Priorist\\AIS\\Client\\Repository\\EventRepository</title>
<polygon fill="none" stroke="#000000" points="571.7728,-300 453.7728,-300 453.7728,-264 571.7728,-264 571.7728,-300"/>
<text text-anchor="middle" x="512.7728" y="-279.2" font-family="Courier,monospace" font-size="11.00" fill="#000000">EventRepository</text>
</g>
<!-- \\Priorist\\AIS\\Client\\Repository\\EventRepository&#45;&gt;AbstractSearchableRepository -->
<g id="edge2" class="edge">
<title>\\Priorist\\AIS\\Client\\Repository\\EventRepository&#45;&gt;AbstractSearchableRepository</title>
<path fill="none" stroke="#000000" d="M453.5771,-280.8802C432.5675,-277.5531 410.3064,-270.2255 394.7728,-255 384.3033,-244.7382 397.7752,-232.6882 386.7728,-223 379.6274,-216.7081 371.6809,-211.5705 363.2113,-207.4051"/>
<polygon fill="none" stroke="#000000" points="364.39,-204.0995 353.8286,-203.2581 361.5602,-210.502 364.39,-204.0995"/>
</g>
<!-- \\Priorist\\AIS\\Client\\Repository\\LecturerRepository -->
<g id="node3" class="node">
<title>\\Priorist\\AIS\\Client\\Repository\\LecturerRepository</title>
<polygon fill="none" stroke="#000000" points="581.7728,-246 443.7728,-246 443.7728,-210 581.7728,-210 581.7728,-246"/>
<text text-anchor="middle" x="512.7728" y="-225.2" font-family="Courier,monospace" font-size="11.00" fill="#000000">LecturerRepository</text>
</g>
<!-- \\Priorist\\AIS\\Client\\Repository\\LecturerRepository&#45;&gt;AbstractSearchableRepository -->
<g id="edge3" class="edge">
<title>\\Priorist\\AIS\\Client\\Repository\\LecturerRepository&#45;&gt;AbstractSearchableRepository</title>
<path fill="none" stroke="#000000" d="M443.666,-222.0078C411.5932,-219.2268 372.3325,-215.8226 334.8302,-212.5708"/>
<polygon fill="none" stroke="#000000" points="335.0899,-209.0803 324.8249,-211.7032 334.4851,-216.0541 335.0899,-209.0803"/>
</g>
<!-- \\Priorist\\AIS\\Client\\Repository\\TagRepository -->
<g id="node4" class="node">
<title>\\Priorist\\AIS\\Client\\Repository\\TagRepository</title>
<polygon fill="none" stroke="#000000" points="564.7728,-192 460.7728,-192 460.7728,-156 564.7728,-156 564.7728,-192"/>
<text text-anchor="middle" x="512.7728" y="-171.2" font-family="Courier,monospace" font-size="11.00" fill="#000000">TagRepository</text>
</g>
<!-- \\Priorist\\AIS\\Client\\Repository\\TagRepository&#45;&gt;AbstractSearchableRepository -->
<g id="edge4" class="edge">
<title>\\Priorist\\AIS\\Client\\Repository\\TagRepository&#45;&gt;AbstractSearchableRepository</title>
<path fill="none" stroke="#000000" d="M460.6537,-178.5192C426.2083,-181.5059 379.3846,-185.566 335.0035,-189.4142"/>
<polygon fill="none" stroke="#000000" points="334.6424,-185.9323 324.9822,-190.2831 335.2472,-192.9061 334.6424,-185.9323"/>
</g>
<!-- \\Priorist\\AIS\\Client\\Repository\\CategoryRepository -->
<g id="node5" class="node">
<title>\\Priorist\\AIS\\Client\\Repository\\CategoryRepository</title>
<polygon fill="none" stroke="#000000" points="581.7728,-138 443.7728,-138 443.7728,-102 581.7728,-102 581.7728,-138"/>
<text text-anchor="middle" x="512.7728" y="-117.2" font-family="Courier,monospace" font-size="11.00" fill="#000000">CategoryRepository</text>
</g>
<!-- \\Priorist\\AIS\\Client\\Repository\\CategoryRepository&#45;&gt;AbstractSearchableRepository -->
<g id="edge5" class="edge">
<title>\\Priorist\\AIS\\Client\\Repository\\CategoryRepository&#45;&gt;AbstractSearchableRepository</title>
<path fill="none" stroke="#000000" d="M443.6933,-135.2294C427.6017,-138.9366 410.5591,-142.9923 394.7728,-147 352.5923,-157.7084 305.5605,-170.8149 268.4406,-181.4338"/>
<polygon fill="none" stroke="#000000" points="267.3844,-178.0956 258.7373,-184.2175 269.3147,-184.8242 267.3844,-178.0956"/>
</g>
<!-- \\Priorist\\AIS\\Client\\Repository\\EnrollmentRepository -->
<g id="node6" class="node">
<title>\\Priorist\\AIS\\Client\\Repository\\EnrollmentRepository</title>
<polygon fill="none" stroke="#000000" points="588.7728,-84 436.7728,-84 436.7728,-48 588.7728,-48 588.7728,-84"/>
<text text-anchor="middle" x="512.7728" y="-63.2" font-family="Courier,monospace" font-size="11.00" fill="#000000">EnrollmentRepository</text>
</g>
<!-- \\Priorist\\AIS\\Client\\Repository\\EnrollmentRepository&#45;&gt;AbstractSearchableRepository -->
<g id="edge6" class="edge">
<title>\\Priorist\\AIS\\Client\\Repository\\EnrollmentRepository&#45;&gt;AbstractSearchableRepository</title>
<path fill="none" stroke="#000000" d="M436.5934,-80.0766C422.4747,-83.6245 408.013,-87.9083 394.7728,-93 336.2908,-115.4902 273.9126,-153.1023 236.2889,-177.4761"/>
<polygon fill="none" stroke="#000000" points="234.1883,-174.6677 227.7322,-183.0683 238.0179,-180.5273 234.1883,-174.6677"/>
</g>
<!-- \\Priorist\\AIS\\Client\\Rest\\ClientException -->
<g id="node7" class="node">
<title>\\Priorist\\AIS\\Client\\Rest\\ClientException</title>
<polygon fill="none" stroke="#000000" points="571.7728,-434 453.7728,-434 453.7728,-398 571.7728,-398 571.7728,-434"/>
<text text-anchor="middle" x="512.7728" y="-413.2" font-family="Courier,monospace" font-size="11.00" fill="#000000">ClientException</text>
</g>
<!-- InvalidArgumentException -->
<g id="node11" class="node">
<title>InvalidArgumentException</title>
<ellipse fill="none" stroke="#000000" cx="201.3864" cy="-384" rx="136.4758" ry="18"/>
<text text-anchor="middle" x="201.3864" y="-380.3" font-family="Times,serif" font-size="14.00" fill="#c0c0c0">InvalidArgumentException</text>
</g>
<!-- \\Priorist\\AIS\\Client\\Rest\\ClientException&#45;&gt;InvalidArgumentException -->
<g id="edge7" class="edge">
<title>\\Priorist\\AIS\\Client\\Rest\\ClientException&#45;&gt;InvalidArgumentException</title>
<path fill="none" stroke="#000000" d="M453.4704,-409.9057C415.5775,-406.0116 365.1258,-400.8269 319.3159,-396.1192"/>
<polygon fill="none" stroke="#000000" points="319.6192,-392.632 309.3138,-395.0913 318.9035,-399.5953 319.6192,-392.632"/>
</g>
<!-- \\Priorist\\AIS\\Client\\User -->
<g id="node8" class="node">
<title>\\Priorist\\AIS\\Client\\User</title>
<polygon fill="none" stroke="#000000" points="539.7728,-506 485.7728,-506 485.7728,-470 539.7728,-470 539.7728,-506"/>
<text text-anchor="middle" x="512.7728" y="-485.2" font-family="Courier,monospace" font-size="11.00" fill="#000000">User</text>
</g>
<!-- ResourceOwnerInterface -->
<g id="node10" class="node">
<title>ResourceOwnerInterface</title>
<ellipse fill="none" stroke="#000000" cx="201.3864" cy="-460" rx="128.0773" ry="18"/>
<text text-anchor="middle" x="201.3864" y="-456.3" font-family="Times,serif" font-size="14.00" fill="#c0c0c0">ResourceOwnerInterface</text>
</g>
<!-- \\Priorist\\AIS\\Client\\User&#45;&gt;ResourceOwnerInterface -->
<g id="edge8" class="edge">
<title>\\Priorist\\AIS\\Client\\User&#45;&gt;ResourceOwnerInterface</title>
<path fill="none" stroke="#000000" d="M485.684,-485.5642C448.681,-482.2368 380.0009,-476.0611 319.4156,-470.6132"/>
<polygon fill="none" stroke="#000000" points="319.6527,-467.1205 309.3794,-469.7108 319.0257,-474.0924 319.6527,-467.1205"/>
</g>
</g>
</svg>
